<?xml version="1.0" encoding="UTF-8" standalone="no"?>
<!-- Created with Inkscape (http://www.inkscape.org/) -->
<svg
   xmlns:dc="http://purl.org/dc/elements/1.1/"
   xmlns:cc="http://web.resource.org/cc/"
   xmlns:rdf="http://www.w3.org/1999/02/22-rdf-syntax-ns#"
   xmlns:svg="http://www.w3.org/2000/svg"
   xmlns="http://www.w3.org/2000/svg"
   xmlns:sodipodi="http://sodipodi.sourceforge.net/DTD/sodipodi-0.dtd"
   xmlns:inkscape="http://www.inkscape.org/namespaces/inkscape"
   id="svg2211"
   sodipodi:version="0.32"
   inkscape:version="0.45.1"
   width="1516.3684"
   height="1130.203"
   version="1.0"
   sodipodi:docbase="D:\YASSINE\Work"
   sodipodi:docname="Maxwell'sEquations.svg"
   inkscape:output_extension="org.inkscape.output.svg.inkscape">
  <metadata
     id="metadata2216">
    <rdf:RDF>
      <cc:Work
         rdf:about="">
        <dc:format>image/svg+xml</dc:format>
        <dc:type
           rdf:resource="http://purl.org/dc/dcmitype/StillImage" />
      </cc:Work>
    </rdf:RDF>
  </metadata>
  <defs
     id="defs2214" />
  <sodipodi:namedview
     inkscape:window-height="717"
     inkscape:window-width="1024"
     inkscape:pageshadow="2"
     inkscape:pageopacity="0.0"
     guidetolerance="10.0"
     gridtolerance="10.0"
     objecttolerance="10.0"
     borderopacity="1.0"
     bordercolor="#666666"
     pagecolor="#ffffff"
     id="base"
     showguides="true"
     inkscape:guide-bbox="true"
     inkscape:zoom="0.19421729"
     inkscape:cx="-138.27215"
     inkscape:cy="833.46395"
     inkscape:window-x="-4"
     inkscape:window-y="-4"
     inkscape:current-layer="svg2211" />
  <g
     id="g2711"
     transform="translate(-3.8488724,8.9978459)">
    <path
       id="path2220"
       d="M 826.77656,259.27715 C 826.02179,256.2699 844.59911,180.58436 847.99253,172.84157 C 853.49001,160.29789 863.66096,149.60327 874.89521,144.55376 C 885.34688,139.856 898.34226,142.18088 904.882,149.91841 C 909.98681,155.95819 911.72512,161.31989 911.78562,171.21226 C 911.91032,191.5995 899.82949,211.70936 882.07866,220.66275 C 870.21789,226.64524 859.74537,225.49734 852.86637,217.46078 C 850.93893,215.209 849.19893,213.5569 848.9997,213.78944 C 848.80048,214.02199 846.27396,223.88726 843.38523,235.71226 C 840.49649,247.53726 837.49635,258.22476 836.71825,259.46226 C 835.63926,261.17831 834.36427,261.71226 831.34563,261.71226 C 827.98599,261.71226 827.29535,261.34418 826.77656,259.27715 z M 873.9738,219.08631 C 879.37964,216.52107 886.21336,208.84042 889.8745,201.21498 C 893.83366,192.96881 898.09919,177.25668 898.9948,167.62022 C 901.05985,145.40114 884.79705,138.29836 869.87056,154.9002 C 863.4559,162.03485 859.92847,170.18122 855.10457,189.00135 L 850.89198,205.43647 L 853.8708,211.21734 C 858.417,220.03994 865.84059,222.94577 873.9738,219.08631 z M 143.65889,227.92456 C 142.28443,227.05067 79.35021,100.84534 79.34986,98.962258 C 79.34967,97.974688 93.41617,97.712258 146.34963,97.712258 C 194.05512,97.712258 213.34963,98.026288 213.34963,98.802718 C 213.34963,100.61409 150.39259,227.06603 149.07352,227.90406 C 147.52042,228.89079 145.19244,228.8996 143.65889,227.92456 z M 201.06684,111.09613 C 200.84534,110.87463 178.40359,110.81015 151.19629,110.95283 L 101.72847,111.21226 L 126.75009,161.70124 L 151.77171,212.19023 L 176.62064,161.84454 C 190.28755,134.15442 201.28834,111.31763 201.06684,111.09613 z M 363.34963,218.78437 L 363.34963,214.71226 L 372.84963,214.71226 L 382.34963,214.71226 L 382.34963,160.21226 L 382.34963,105.71226 L 372.84963,105.71226 L 363.34963,105.71226 L 363.34963,101.64015 L 363.34963,97.568038 L 408.59963,97.976188 C 447.67123,98.328618 454.64873,98.619458 459.70217,100.10626 C 482.25436,106.74148 496.14491,120.73479 501.99528,142.71226 C 504.36632,151.6193 504.33712,170.84496 501.93908,179.71226 C 496.5638,199.58858 480.79297,214.9211 460.1032,220.38542 C 454.85925,221.77039 446.54414,222.10318 408.59963,222.44676 L 363.34963,222.85648 L 363.34963,218.78437 z M 442.13624,213.67697 C 460.87949,210.63535 472.08683,200.92906 475.8369,184.49 C 477.82804,175.76146 478.1436,149.57939 476.37501,139.84193 C 473.41018,123.51824 465.33833,113.86223 450.26671,108.6097 C 444.56227,106.62167 441.79514,106.36437 425.34963,106.29279 L 406.84963,106.21226 L 406.58969,159.21226 C 406.44672,188.36226 406.5451,212.77476 406.80831,213.46226 C 407.41051,215.03523 432.81483,215.18963 442.13624,213.67697 z M 284.70663,185.72068 C 278.85607,183.35969 277.56296,175.34508 282.27271,170.63533 C 289.64413,163.26391 301.30285,171.16834 297.30274,180.82547 C 295.33155,185.58434 289.74692,187.75469 284.70663,185.72068 z "
       style="fill:#000000" />
    <path
       id="flowRoot2238"
       d="M 545.83643,448.17411 C 545.83632,447.40365 545.54848,446.73055 544.9729,446.15482 C 544.39711,445.57919 543.72548,445.29135 542.95801,445.29129 L 453.09863,445.29129 C 452.33104,445.29135 451.65941,445.57919 451.08374,446.15482 C 450.50805,446.73055 450.22021,447.40365 450.22021,448.17411 C 450.22021,448.94173 450.50805,449.61336 451.08374,450.189 C 451.65941,450.76473 452.33104,451.05257 453.09863,451.05252 L 542.95801,451.05252 C 543.72548,451.05257 544.39711,450.76473 544.9729,450.189 C 545.54848,449.61336 545.83632,448.94173 545.83643,448.17411 L 545.83643,448.17411 z M 545.83643,476.10575 C 545.83632,475.33819 545.54848,474.66656 544.9729,474.09085 C 544.39711,473.51519 543.72548,473.22735 542.95801,473.22733 L 453.09863,473.22733 C 452.33104,473.22735 451.65941,473.51519 451.08374,474.09085 C 450.50805,474.66656 450.22021,475.33819 450.22021,476.10575 C 450.22021,476.87627 450.50805,477.54937 451.08374,478.12503 C 451.65941,478.70074 452.33104,478.98858 453.09863,478.98856 L 542.95801,478.98856 C 543.72548,478.98858 544.39711,478.70074 544.9729,478.12503 C 545.54848,477.54937 545.83632,476.87627 545.83643,476.10575 L 545.83643,476.10575 z "
       style="font-size:144px;font-family:Euclid"
       transform="matrix(1.3819948,0,0,1.3819948,-26.27251,-462.02581)" />
  </g>
  <g
     id="g2715"
     transform="translate(-3.8488724,8.9978459)">
    <path
       id="path2318"
       d="M 143.65882,468.98675 C 142.28436,468.11286 79.35014,341.90753 79.34979,340.02445 C 79.34961,339.03688 93.4161,338.77445 146.34956,338.77445 C 194.05505,338.77445 213.34956,339.08848 213.34956,339.86491 C 213.34956,341.67628 150.39252,468.12822 149.07345,468.96625 C 147.52035,469.95298 145.19237,469.96179 143.65882,468.98675 z M 201.06677,352.15832 C 200.84527,351.93682 178.40352,351.87234 151.19622,352.01502 L 101.7284,352.27445 L 126.75002,402.76343 L 151.77164,453.25242 L 176.62057,402.90673 C 190.28748,375.21661 201.28827,352.37982 201.06677,352.15832 z M 846.09548,466.74998 C 835.36231,464.04538 827.1324,456.98305 822.30368,446.33353 C 817.37782,435.46979 816.01773,426.48172 816.0149,404.77445 C 816.01199,382.45513 817.26545,374.69541 822.73376,363.18072 C 827.24144,353.68883 831.91887,348.69965 839.58776,345.20343 C 844.77358,342.83924 847.22783,342.34232 853.87059,342.31157 C 860.96149,342.27875 862.66705,342.65619 868.57861,345.56645 C 878.80666,350.6017 885.13438,359.29393 888.87453,373.44643 C 892.71382,387.97405 893.12247,416.16347 889.73454,432.77 C 886.45266,448.85669 877.45022,461.48305 866.59376,465.22607 C 860.65184,467.27469 851.0196,467.99078 846.09548,466.74998 z M 862.44228,461.46745 C 865.10829,460.07192 868.10098,457.31048 870.017,454.47805 C 875.30554,446.66003 876.57707,438.70809 877.11449,410.0916 C 877.78607,374.33106 876.0072,361.66749 869.1424,353.33929 C 860.97517,343.43103 847.18203,343.3676 838.55029,353.19862 C 832.49839,360.09134 831.16827,367.16115 830.60026,395.45441 C 829.69393,440.59954 833.0504,455.45747 845.55328,461.64626 C 851.15222,464.41768 856.9229,464.35658 862.44228,461.46745 z M 363.34956,459.84292 L 363.34956,455.77445 L 372.84956,455.77445 L 382.34956,455.77445 L 382.34956,401.27445 L 382.34956,346.77445 L 372.84956,346.77445 L 363.34956,346.77445 L 363.34956,342.70297 L 363.34956,338.63149 L 409.09956,339.03567 C 447.00074,339.37051 455.74923,339.71009 460.09363,341.01507 C 477.75312,346.31966 486.76936,356.03862 486.77358,369.77445 C 486.77599,377.60075 484.46061,382.63452 478.29701,388.20295 C 473.94314,392.13642 466.40404,395.95278 460.34956,397.28812 C 456.91354,398.04594 456.97752,398.09078 463.84956,399.74096 C 482.90115,404.31583 492.72139,414.74076 492.62512,430.28843 C 492.531,445.4898 482.17619,457.01892 464.23778,461.89511 C 461.2333,462.71182 444.63492,463.21779 411.59956,463.49968 L 363.34956,463.91139 L 363.34956,459.84292 z M 451.42229,453.60083 C 457.49977,450.91961 462.08024,446.10615 464.3989,439.96412 C 468.97237,427.84926 464.88006,411.90757 455.50384,405.31319 L 451.18321,402.27445 L 428.76638,401.95571 L 406.34956,401.63697 L 406.34956,428.80676 L 406.34956,455.97654 L 427.09956,455.57678 C 443.13498,455.26785 448.66132,454.81889 451.42229,453.60083 z M 446.47884,393.49101 C 455.67292,389.33001 461.32666,380.68441 461.33421,370.77445 C 461.34014,362.99863 459.75897,358.23338 455.67182,353.70939 C 450.35479,347.82407 445.5866,346.77445 424.16806,346.77445 L 406.34956,346.77445 L 406.34956,371.36982 L 406.34956,395.9652 L 424.59956,395.54936 C 438.70196,395.22803 443.67437,394.76023 446.47884,393.49101 z M 284.70656,426.78287 C 278.856,424.42188 277.56289,416.40727 282.27264,411.69753 C 289.64406,404.3261 301.30278,412.23053 297.30267,421.88766 C 295.33148,426.64653 289.74685,428.81688 284.70656,426.78287 z "
       style="fill:#000000" />
    <path
       id="flowRoot2321"
       d="M 545.83643,448.17411 C 545.83632,447.40365 545.54848,446.73055 544.9729,446.15482 C 544.39711,445.57919 543.72548,445.29135 542.95801,445.29129 L 453.09863,445.29129 C 452.33104,445.29135 451.65941,445.57919 451.08374,446.15482 C 450.50805,446.73055 450.22021,447.40365 450.22021,448.17411 C 450.22021,448.94173 450.50805,449.61336 451.08374,450.189 C 451.65941,450.76473 452.33104,451.05257 453.09863,451.05252 L 542.95801,451.05252 C 543.72548,451.05257 544.39711,450.76473 544.9729,450.189 C 545.54848,449.61336 545.83632,448.94173 545.83643,448.17411 L 545.83643,448.17411 z M 545.83643,476.10575 C 545.83632,475.33819 545.54848,474.66656 544.9729,474.09085 C 544.39711,473.51519 543.72548,473.22735 542.95801,473.22733 L 453.09863,473.22733 C 452.33104,473.22735 451.65941,473.51519 451.08374,474.09085 C 450.50805,474.66656 450.22021,475.33819 450.22021,476.10575 C 450.22021,476.87627 450.50805,477.54937 451.08374,478.12503 C 451.65941,478.70074 452.33104,478.98858 453.09863,478.98856 L 542.95801,478.98856 C 543.72548,478.98858 544.39711,478.70074 544.9729,478.12503 C 545.54848,477.54937 545.83632,476.87627 545.83643,476.10575 L 545.83643,476.10575 z "
       style="font-size:144px;font-family:Euclid"
       transform="matrix(1.3819948,0,0,1.3819948,-26.27258,-221.10437)" />
  </g>
  <g
     id="g2719"
     transform="translate(-3.8488724,8.9978459)">
    <path
       id="path2386"
       d="M 1079.1702,772.76687 C 1070.6847,770.3697 1064.5957,764.20253 1062.2208,755.5999 C 1060.9035,750.82808 1062.4072,740.86224 1065.2973,735.21138 C 1070.2061,725.61338 1080.8623,717.44739 1092.2822,714.53256 C 1104.2319,711.4825 1114.0652,714.78736 1118.5207,723.35102 L 1120.7313,727.5999 L 1122.0377,722.0999 C 1125.0171,709.55733 1123.3928,696.99202 1118.0519,691.26623 C 1110.2769,682.93098 1093.2731,682.89699 1085.7575,691.20167 C 1083.9416,693.20824 1083.9514,693.29096 1086.2094,694.99412 C 1091.022,698.62429 1085.9977,707.23233 1079.9519,705.71493 C 1071.7301,703.6514 1080.5482,686.97331 1091.9689,682.9866 C 1098.2115,680.80744 1109.9206,681.32362 1116.129,684.05167 C 1122.7939,686.9803 1129.5907,694.38743 1132.0291,701.37966 C 1139.8526,723.81357 1122.8152,763.2007 1101.9156,770.99616 C 1094.4595,773.77727 1085.2771,774.4921 1079.1702,772.76687 z M 1097.8496,767.74705 C 1106.8886,763.52888 1114.5334,752.37048 1117.2928,739.36754 C 1119.5842,728.57018 1114.6868,719.39445 1105.3441,716.98015 C 1096.0388,714.57555 1083.3414,721.31517 1078.2037,731.38588 C 1075.506,736.67387 1072.3488,749.42269 1072.3533,755.00986 C 1072.3636,767.55933 1084.8669,773.80561 1097.8496,767.74705 z M 143.65881,714.3122 C 142.28436,713.43831 79.35014,587.23299 79.34979,585.3499 C 79.34961,584.36234 93.4161,584.0999 146.34955,584.0999 C 194.05504,584.0999 213.34955,584.41393 213.34955,585.19036 C 213.34955,587.00173 150.39252,713.45367 149.07345,714.2917 C 147.52035,715.27843 145.19236,715.28724 143.65881,714.3122 z M 201.06676,597.48378 C 200.84526,597.26228 178.40351,597.19779 151.19621,597.34048 L 101.7284,597.5999 L 126.75001,648.08888 L 151.77163,698.57787 L 176.62056,648.23218 C 190.28747,620.54206 201.28826,597.70528 201.06676,597.48378 z M 454.34956,705.10802 L 454.34956,701.0999 L 463.84956,701.0999 L 473.34956,701.0999 L 473.34956,647.0999 L 473.34956,593.0999 L 463.84956,593.0999 L 454.34956,593.0999 L 454.34956,589.0999 L 454.34956,585.0999 L 510.33051,585.0999 L 566.31146,585.0999 L 566.79774,587.3499 C 567.06519,588.5874 568.21351,597.4749 569.34956,607.0999 C 570.48561,616.7249 571.63393,625.6124 571.90138,626.8499 C 572.34214,628.88928 572.01323,629.0999 568.38766,629.0999 C 565.043,629.0999 564.31201,628.73127 563.9259,626.8499 C 560.75182,611.38376 558.90199,606.71899 553.99831,601.81531 C 547.46184,595.27885 541.57175,593.8458 519.09956,593.32452 L 499.34956,592.86638 L 499.34956,617.12185 L 499.34956,641.37731 L 508.16123,640.87489 C 519.43347,640.23218 523.93981,638.21241 526.45445,632.67576 C 527.4726,630.43404 528.31552,626.4624 528.3276,623.8499 L 528.34956,619.0999 L 532.34956,619.0999 L 536.34956,619.0999 L 536.34956,644.5999 L 536.34956,670.0999 L 532.48845,670.0999 L 528.62734,670.0999 L 528.08003,664.06415 C 527.05789,652.79179 523.27535,649.82827 509.18755,649.26243 L 499.34956,648.86729 L 499.34956,675.11123 L 499.34956,701.35518 L 519.09956,700.85035 C 535.45938,700.43217 539.97249,699.98527 545.39138,698.24683 C 557.63501,694.31894 564.28243,685.74905 567.91939,669.20359 C 568.83867,665.02156 569.7474,661.0374 569.9388,660.3499 C 570.14317,659.61581 571.94033,659.0999 574.29318,659.0999 C 578.12768,659.0999 578.27645,659.21788 577.76096,661.8499 C 577.46473,663.3624 575.53537,674.4999 573.47349,686.5999 L 569.72462,708.5999 L 512.03709,708.85802 L 454.34956,709.11615 L 454.34956,705.10802 z M 1021.3496,663.0999 L 1021.3496,659.0999 L 1123.3496,659.0999 L 1225.3495,659.0999 L 1225.3495,663.0999 L 1225.3495,667.0999 L 1123.3496,667.0999 L 1021.3496,667.0999 L 1021.3496,663.0999 z M 1048.1701,637.76687 C 1039.6847,635.3697 1033.5957,629.20253 1031.2208,620.5999 C 1029.9035,615.82808 1031.4072,605.86224 1034.2973,600.21138 C 1039.2061,590.61338 1049.8623,582.44739 1061.2822,579.53256 C 1073.2319,576.4825 1083.0652,579.78737 1087.5207,588.35102 L 1089.7313,592.5999 L 1091.0377,587.0999 C 1094.0171,574.55734 1092.3928,561.99202 1087.0519,556.26623 C 1079.2769,547.93098 1062.2731,547.89699 1054.7575,556.20168 C 1052.9415,558.20824 1052.9514,558.29096 1055.2093,559.99412 C 1060.022,563.62429 1054.9977,572.23233 1048.9518,570.71493 C 1040.7301,568.6514 1049.5482,551.97332 1060.9689,547.98661 C 1067.2115,545.80744 1078.9206,546.32362 1085.129,549.05167 C 1091.7939,551.9803 1098.5907,559.38744 1101.0291,566.37966 C 1108.8526,588.81358 1091.8152,628.2007 1070.9156,635.99616 C 1063.4594,638.77727 1054.2771,639.4921 1048.1701,637.76687 z M 1066.8496,632.74705 C 1075.8886,628.52888 1083.5334,617.37048 1086.2928,604.36754 C 1088.5842,593.57019 1083.6868,584.39445 1074.3441,581.98015 C 1065.0388,579.57555 1052.3414,586.31517 1047.2037,596.38588 C 1044.5059,601.67387 1041.3488,614.42269 1041.3533,620.00986 C 1041.3635,632.55933 1053.8668,638.80561 1066.8496,632.74705 z M 1116.3496,633.64559 L 1116.3496,630.19128 L 1123.0996,629.89559 L 1129.8496,629.5999 L 1129.8496,593.0999 L 1129.8496,556.5999 L 1123.0996,556.30421 L 1116.3496,556.00852 L 1116.3496,552.55421 L 1116.3496,549.0999 L 1148.5996,549.11727 C 1184.0613,549.13636 1190.4395,549.84693 1199.5222,554.79036 C 1206.6499,558.66972 1209.8496,563.75501 1209.8496,571.20354 C 1209.8496,579.71731 1206.2113,583.94079 1194.926,588.52748 L 1189.0108,590.93159 L 1193.4302,592.01558 C 1200.1644,593.66733 1208.2237,598.06526 1210.8284,601.50964 C 1217.1146,609.82251 1216.0553,620.33308 1208.1849,627.73795 C 1199.3537,636.04682 1193.104,637.06099 1150.5996,637.08254 L 1116.3496,637.0999 L 1116.3496,633.64559 z M 1183.4454,628.5661 C 1188.6849,626.71751 1192.1345,623.7097 1193.9785,619.38202 C 1197.7577,610.51253 1192.8234,598.49654 1184.0345,595.16651 C 1182.4439,594.56384 1173.8533,594.0999 1164.2845,594.0999 L 1147.3496,594.0999 L 1147.3496,612.0999 L 1147.3496,630.0999 L 1163.2239,630.0999 C 1174.9336,630.0999 1180.2386,629.69752 1183.4454,628.5661 z M 1180.891,586.22024 C 1185.4014,584.17145 1190.0261,579.23692 1190.9735,575.46243 C 1191.8632,571.91724 1190.8122,565.45489 1188.8617,562.47801 C 1185.5312,557.39497 1180.4693,556.14608 1163.0996,556.12186 L 1147.3496,556.0999 L 1147.3496,572.0999 L 1147.3496,588.0999 L 1162.0996,588.07794 C 1174.2427,588.05986 1177.5639,587.73153 1180.891,586.22024 z "
       style="fill:#000000" />
    <path
       id="flowRoot2413"
       d="M 840,42.560336 C 840.57706,41.986119 840.86563,41.313757 840.86572,40.543246 C 840.86563,39.681922 840.57706,38.962685 840,38.385531 L 810.19189,8.5774254 L 840,-21.23068 C 840.57706,-21.807762 840.86563,-22.480125 840.86572,-23.24777 C 840.86563,-24.111959 840.57706,-24.831929 840,-25.407682 C 839.42276,-25.983295 838.70206,-26.271137 837.83789,-26.271207 C 837.07023,-26.271137 836.39933,-25.982563 835.8252,-25.405485 L 806.16211,4.5432457 L 776.354,-25.405485 C 775.00925,-26.75014 773.66453,-26.75014 772.31982,-25.405485 C 771.74265,-24.831197 771.45408,-24.111959 771.4541,-23.24777 C 771.45408,-22.480125 771.74265,-21.807762 772.31982,-21.23068 L 802.12793,8.5774254 L 772.31982,38.385531 C 771.74265,38.962685 771.45408,39.681922 771.4541,40.543246 C 771.45408,41.313757 771.74265,41.986852 772.31982,42.562533 C 772.89695,43.138218 773.56931,43.426059 774.33691,43.426058 C 775.10447,43.426059 775.77683,43.137485 776.354,42.560336 L 806.16211,12.611605 L 835.8252,42.560336 C 836.39933,43.137485 837.07023,43.426059 837.83789,43.426058 C 838.70206,43.426059 839.42276,43.137485 840,42.560336 L 840,42.560336 z "
       style="font-size:144px;font-family:Euclid"
       transform="matrix(1.157357,0,0,1.157357,-598.00514,653.16125)" />
    <path
       id="flowRoot2429"
       d="M 803.56934,-15.688321 C 803.75971,-16.742947 803.37592,-17.270291 802.41797,-17.270353 L 788.59277,-17.270353 L 794.49463,-40.886564 C 794.87837,-42.421633 794.68648,-43.573731 793.91895,-44.342862 C 793.15132,-45.111816 792.19185,-45.496337 791.04053,-45.496427 C 789.88912,-45.496337 788.73702,-45.111816 787.58423,-44.342862 C 786.43136,-43.573731 785.66305,-42.421633 785.2793,-40.886564 L 779.37744,-17.270353 L 765.40723,-17.270353 C 764.44627,-17.270291 763.77391,-16.742947 763.39014,-15.688321 L 763.10449,-14.536954 C 762.91112,-13.479279 763.29491,-12.950471 764.25586,-12.950528 L 778.3667,-12.950528 L 767.85498,29.096347 C 767.28074,31.399094 767.11302,33.583174 767.35181,35.648593 C 767.59056,37.714029 768.21458,39.53849 769.22388,41.121981 C 770.23313,42.705479 771.57713,43.952793 773.25586,44.863925 C 774.93455,45.775056 776.92673,46.230622 779.23242,46.230624 C 781.91891,46.230622 784.39083,45.558992 786.64819,44.215731 C 788.90548,42.872471 790.96944,41.14469 792.84009,39.032382 C 794.71065,36.920085 796.36592,34.544111 797.80591,31.904452 C 799.2458,29.264819 800.44624,26.600271 801.40723,23.9108 C 801.50385,23.623711 801.45625,23.33587 801.2644,23.047274 C 801.07246,22.758722 800.78462,22.614435 800.40088,22.614413 L 798.67383,22.614413 C 798.38374,22.614435 798.071,22.711115 797.7356,22.904452 C 797.4001,23.097833 797.18403,23.386407 797.0874,23.770175 C 796.12642,26.360037 795.07027,28.807056 793.91895,31.111239 C 792.76754,33.41545 791.47188,35.455975 790.03198,37.232821 C 788.592,39.009682 787.03195,40.426185 785.35181,41.482333 C 783.6716,42.538487 781.87204,43.066563 779.95313,43.066561 C 777.55368,43.066563 776.20969,41.72257 775.92114,39.034579 C 775.63254,36.346599 776.0156,33.033858 777.07031,29.096347 L 787.58203,-12.950528 L 801.26221,-12.950528 C 802.22309,-12.950471 802.89545,-13.479279 803.2793,-14.536954 L 803.56934,-15.688321 z "
       style="font-size:144px;font-family:Euclid"
       transform="matrix(0.9554219,0,0,0.9554219,417.08364,729.35319)" />
    <path
       id="flowRoot2467"
       d="M 545.83643,448.17411 C 545.83632,447.40365 545.54848,446.73055 544.9729,446.15482 C 544.39711,445.57919 543.72548,445.29135 542.95801,445.29129 L 453.09863,445.29129 C 452.33104,445.29135 451.65941,445.57919 451.08374,446.15482 C 450.50805,446.73055 450.22021,447.40365 450.22021,448.17411 C 450.22021,448.94173 450.50805,449.61336 451.08374,450.189 C 451.65941,450.76473 452.33104,451.05257 453.09863,451.05252 L 542.95801,451.05252 C 543.72548,451.05257 544.39711,450.76473 544.9729,450.189 C 545.54848,449.61336 545.83632,448.94173 545.83643,448.17411 L 545.83643,448.17411 z M 545.83643,476.10575 C 545.83632,475.33819 545.54848,474.66656 544.9729,474.09085 C 544.39711,473.51519 543.72548,473.22735 542.95801,473.22733 L 453.09863,473.22733 C 452.33104,473.22735 451.65941,473.51519 451.08374,474.09085 C 450.50805,474.66656 450.22021,475.33819 450.22021,476.10575 C 450.22021,476.87627 450.50805,477.54937 451.08374,478.12503 C 451.65941,478.70074 452.33104,478.98858 453.09863,478.98856 L 542.95801,478.98856 C 543.72548,478.98858 544.39711,478.70074 544.9729,478.12503 C 545.54848,477.54937 545.83632,476.87627 545.83643,476.10575 L 545.83643,476.10575 z "
       style="font-size:144px;font-family:Euclid"
       transform="matrix(1.3819948,0,0,1.3819948,48.36387,24.408546)" />
    <path
       id="flowRoot2483"
       d="M 541.80225,528.81375 C 541.80215,528.04322 541.5143,527.37012 540.93872,526.79447 C 540.36294,526.21875 539.69131,525.93091 538.92383,525.93094 L 456.98779,525.93094 C 456.2202,525.93091 455.54857,526.21875 454.9729,526.79447 C 454.3972,527.37012 454.10936,528.04322 454.10938,528.81375 C 454.10936,529.5813 454.3972,530.25293 454.9729,530.82865 C 455.54857,531.4043 456.2202,531.69214 456.98779,531.69217 L 538.92383,531.69217 C 539.69131,531.69214 540.36294,531.4043 540.93872,530.82865 C 541.5143,530.25293 541.80215,529.5813 541.80225,528.81375 L 541.80225,528.81375 z "
       style="font-size:144px;font-family:Euclid"
       transform="matrix(1.0394742,0,0,1.0660204,411.43145,98.658982)" />
  </g>
  <g
     id="g2726"
     transform="translate(-3.8488724,8.9978459)">
    <path
       id="path2549"
       d="M 1308.1702,1076.7536 C 1299.6847,1074.3565 1293.5957,1068.1893 1291.2208,1059.5867 C 1289.9035,1054.8149 1291.4073,1044.849 1294.2973,1039.1982 C 1299.2061,1029.6002 1309.8623,1021.4342 1321.2822,1018.5193 C 1333.2319,1015.4693 1343.0652,1018.7741 1347.5207,1027.3378 L 1349.7313,1031.5867 L 1351.0377,1026.0867 C 1354.0171,1013.5441 1352.3928,1000.9788 1347.0519,995.25295 C 1339.2769,986.91775 1322.2731,986.88375 1314.7575,995.18835 C 1312.9416,997.19495 1312.9514,997.27765 1315.2094,998.98085 C 1320.022,1002.6111 1314.9977,1011.2191 1308.9519,1009.7017 C 1300.7301,1007.6382 1309.5482,990.96005 1320.9689,986.97335 C 1327.2115,984.79415 1338.9206,985.31035 1345.129,988.03835 C 1351.7939,990.96705 1358.5907,998.37415 1361.0291,1005.3664 C 1368.8526,1027.8003 1351.8152,1067.1875 1330.9155,1074.9829 C 1323.4595,1077.764 1314.2771,1078.4789 1308.1702,1076.7536 z M 1326.8496,1071.7338 C 1335.8886,1067.5157 1343.5334,1056.3573 1346.2928,1043.3543 C 1348.5842,1032.557 1343.6868,1023.3812 1334.3441,1020.9669 C 1325.0387,1018.5623 1312.3414,1025.3019 1307.2037,1035.3727 C 1304.506,1040.6606 1301.3488,1053.4095 1301.3533,1058.9966 C 1301.3636,1071.5461 1313.8669,1077.7924 1326.8496,1071.7338 z M 143.65887,1018.299 C 142.28441,1017.4251 79.35019,891.21975 79.34984,889.33665 C 79.34966,888.34905 93.41615,888.08665 146.34961,888.08665 C 194.0551,888.08665 213.34961,888.40065 213.34961,889.17705 C 213.34961,890.98845 150.39257,1017.4404 149.0735,1018.2785 C 147.5204,1019.2652 145.19242,1019.274 143.65887,1018.299 z M 201.06682,901.47055 C 200.84532,901.24905 178.40357,901.18455 151.19627,901.32725 L 101.72845,901.58665 L 126.75007,952.07565 L 151.77169,1002.5646 L 176.62062,952.21895 C 190.28753,924.52875 201.28832,901.69195 201.06682,901.47055 z M 912.87622,1014.0378 C 897.15017,1011.5761 886.68396,1000.7789 888.84705,989.24855 C 889.7199,984.59585 894.95632,979.43865 899.71387,978.54615 C 904.47777,977.65235 911.57078,980.24905 913.84446,983.71915 C 917.5252,989.33665 916.60164,997.74315 911.80399,1002.2922 C 910.47308,1003.5542 909.37638,1004.8893 909.36688,1005.2591 C 909.33267,1006.5906 916.97152,1008.4297 922.8496,1008.5052 C 930.27678,1008.6006 934.85033,1006.0636 938.38769,999.88605 L 940.8496,995.58665 L 941.13506,945.83665 L 941.42053,896.08665 L 928.88506,896.08665 L 916.3496,896.08665 L 916.34941,892.33665 L 916.34922,888.58665 L 948.34918,888.58665 L 980.34914,888.58665 L 980.34937,892.29285 L 980.3496,895.99905 L 973.0996,896.29285 L 965.8496,896.58665 L 965.3496,945.58665 L 964.8496,994.58665 L 962.12097,999.22825 C 956.87534,1008.1515 944.52983,1013.6896 928.04783,1014.5132 C 922.9888,1014.7661 916.16158,1014.5521 912.87622,1014.0378 z M 454.3496,1008.8367 L 454.3496,1005.0867 L 463.8496,1005.0867 L 473.3496,1005.0867 L 473.3496,950.58665 L 473.3496,896.08665 L 463.8496,896.08665 L 454.3496,896.08665 L 454.3496,892.33665 L 454.3496,888.58665 L 486.3496,888.58665 L 518.3496,888.58665 L 518.3496,892.33665 L 518.3496,896.08665 L 508.8496,896.08665 L 499.3496,896.08665 L 499.3496,920.08665 L 499.3496,944.08665 L 528.3496,944.08665 L 557.3496,944.08665 L 557.3496,920.08665 L 557.3496,896.08665 L 547.8496,896.08665 L 538.3496,896.08665 L 538.3496,892.33665 L 538.3496,888.58665 L 570.3496,888.58665 L 602.3496,888.58665 L 602.3496,892.33665 L 602.3496,896.08665 L 592.8496,896.08665 L 583.3496,896.08665 L 583.3496,950.58665 L 583.3496,1005.0867 L 592.8496,1005.0867 L 602.3496,1005.0867 L 602.3496,1008.8367 L 602.3496,1012.5867 L 570.3496,1012.5867 L 538.3496,1012.5867 L 538.3496,1008.8367 L 538.3496,1005.0867 L 547.8496,1005.0867 L 557.3496,1005.0867 L 557.3496,978.58665 L 557.3496,952.08665 L 528.3496,952.08665 L 499.3496,952.08665 L 499.3496,978.58665 L 499.3496,1005.0867 L 508.8496,1005.0867 L 518.3496,1005.0867 L 518.3496,1008.8367 L 518.3496,1012.5867 L 486.3496,1012.5867 L 454.3496,1012.5867 L 454.3496,1008.8367 z M 1247.3496,967.08665 L 1247.3496,963.08665 L 1353.3496,963.08665 L 1459.3496,963.08665 L 1459.3496,967.08665 L 1459.3496,971.08665 L 1353.3496,971.08665 L 1247.3496,971.08665 L 1247.3496,967.08665 z M 1273.1702,941.75355 C 1264.6847,939.35645 1258.5957,933.18925 1256.2208,924.58665 C 1254.9035,919.81485 1256.4073,909.84895 1259.2973,904.19815 C 1264.2061,894.60015 1274.8623,886.43415 1286.2822,883.51925 C 1298.2319,880.46925 1308.0652,883.77405 1312.5207,892.33775 L 1314.7313,896.58665 L 1316.0377,891.08665 C 1319.0171,878.54405 1317.3928,865.97875 1312.0519,860.25295 C 1304.2769,851.91775 1287.2731,851.88375 1279.7575,860.18835 C 1277.9416,862.19495 1277.9514,862.27765 1280.2094,863.98085 C 1285.022,867.61105 1279.9977,876.21905 1273.9519,874.70165 C 1265.7301,872.63815 1274.5482,855.96005 1285.9689,851.97335 C 1292.2115,849.79415 1303.9206,850.31035 1310.129,853.03835 C 1316.7939,855.96705 1323.5907,863.37415 1326.0291,870.36635 C 1333.8526,892.80025 1316.8152,932.18745 1295.9155,939.98285 C 1288.4595,942.76395 1279.2771,943.47885 1273.1702,941.75355 z M 1291.8496,936.73375 C 1300.8886,932.51565 1308.5334,921.35725 1311.2928,908.35425 C 1313.5842,897.55695 1308.6868,888.38115 1299.3441,885.96685 C 1290.0387,883.56225 1277.3414,890.30185 1272.2037,900.37265 C 1269.506,905.66055 1266.3488,918.40945 1266.3533,923.99655 C 1266.3636,936.54605 1278.8669,942.79235 1291.8496,936.73375 z M 1341.3496,937.66405 L 1341.3496,934.08665 L 1347.8496,934.08665 L 1354.3496,934.08665 L 1354.3496,897.08665 L 1354.3496,860.08665 L 1347.8496,860.08665 L 1341.3496,860.08665 L 1341.3496,856.50835 L 1341.3496,852.93005 L 1376.5996,853.34945 C 1414.8207,853.80415 1417.0647,854.08545 1427.4125,859.71735 C 1443.1987,868.30935 1451.582,886.34365 1448.4907,905.06155 C 1445.8116,921.28495 1436.1392,932.29355 1419.3496,938.22885 C 1413.1207,940.43085 1411.3588,940.54155 1377.0996,940.88405 L 1341.3496,941.24155 L 1341.3496,937.66405 z M 1413.8714,930.08665 C 1426.2183,923.74615 1429.9314,915.00445 1429.1481,894.12135 C 1428.6612,881.14045 1426.7126,875.15735 1421.0484,869.25135 C 1414.1927,862.10305 1406.8165,860.11435 1387.0996,860.09845 L 1372.3496,860.08665 L 1372.3496,897.18555 L 1372.3496,934.28455 L 1389.7026,933.93555 L 1407.0559,933.58665 L 1413.8714,930.08665 z "
       style="fill:#000000" />
    <path
       id="flowRoot2551"
       d="M 545.83643,462.13993 C 545.83632,461.37238 545.54848,460.70075 544.9729,460.12503 C 544.39711,459.54939 543.72548,459.26155 542.95801,459.26151 L 500.90674,459.26151 L 500.90674,417.06961 C 500.90668,416.29919 500.61884,415.62609 500.04321,415.05033 C 499.46747,414.47473 498.79584,414.18688 498.02832,414.1868 C 497.26069,414.18688 496.58906,414.47473 496.01343,415.05033 C 495.43769,415.62609 495.14985,416.29919 495.1499,417.06961 L 495.1499,459.26151 L 453.09863,459.26151 C 452.33104,459.26155 451.65941,459.54939 451.08374,460.12503 C 450.50805,460.70075 450.22021,461.37238 450.22021,462.13993 C 450.22021,462.90754 450.50805,463.57917 451.08374,464.15482 C 451.65941,464.73053 452.33104,465.01838 453.09863,465.01834 L 495.1499,465.01834 L 495.1499,507.21024 C 495.14985,507.98074 495.43769,508.65383 496.01343,509.22952 C 496.58906,509.8052 497.26069,510.09304 498.02832,510.09305 C 498.79584,510.09304 499.46747,509.8052 500.04321,509.22952 C 500.61884,508.65383 500.90668,507.98074 500.90674,507.21024 L 500.90674,465.01834 L 542.95801,465.01834 C 543.72548,465.01838 544.39711,464.73053 544.9729,464.15482 C 545.54848,463.57917 545.83632,462.90754 545.83643,462.13993 L 545.83643,462.13993 z "
       style="font-size:144px;font-family:Euclid"
       transform="matrix(1.3819948,0,0,1.3819948,424.47739,327.91692)" />
    <path
       id="flowRoot2559"
       d="M 545.83643,448.17411 C 545.83632,447.40365 545.54848,446.73055 544.9729,446.15482 C 544.39711,445.57919 543.72548,445.29135 542.95801,445.29129 L 453.09863,445.29129 C 452.33104,445.29135 451.65941,445.57919 451.08374,446.15482 C 450.50805,446.73055 450.22021,447.40365 450.22021,448.17411 C 450.22021,448.94173 450.50805,449.61336 451.08374,450.189 C 451.65941,450.76473 452.33104,451.05257 453.09863,451.05252 L 542.95801,451.05252 C 543.72548,451.05257 544.39711,450.76473 544.9729,450.189 C 545.54848,449.61336 545.83632,448.94173 545.83643,448.17411 L 545.83643,448.17411 z M 545.83643,476.10575 C 545.83632,475.33819 545.54848,474.66656 544.9729,474.09085 C 544.39711,473.51519 543.72548,473.22735 542.95801,473.22733 L 453.09863,473.22733 C 452.33104,473.22735 451.65941,473.51519 451.08374,474.09085 C 450.50805,474.66656 450.22021,475.33819 450.22021,476.10575 C 450.22021,476.87627 450.50805,477.54937 451.08374,478.12503 C 451.65941,478.70074 452.33104,478.98858 453.09863,478.98856 L 542.95801,478.98856 C 543.72548,478.98858 544.39711,478.70074 544.9729,478.12503 C 545.54848,477.54937 545.83632,476.87627 545.83643,476.10575 L 545.83643,476.10575 z "
       style="font-size:144px;font-family:Euclid"
       transform="matrix(1.3819948,0,0,1.3819948,73.01059,328.1936)" />
    <path
       id="flowRoot2576"
       d="M 840,42.560336 C 840.57706,41.986119 840.86563,41.313757 840.86572,40.543246 C 840.86563,39.681922 840.57706,38.962685 840,38.385531 L 810.19189,8.5774254 L 840,-21.23068 C 840.57706,-21.807762 840.86563,-22.480125 840.86572,-23.24777 C 840.86563,-24.111959 840.57706,-24.831929 840,-25.407682 C 839.42276,-25.983295 838.70206,-26.271137 837.83789,-26.271207 C 837.07023,-26.271137 836.39933,-25.982563 835.8252,-25.405485 L 806.16211,4.5432457 L 776.354,-25.405485 C 775.00925,-26.75014 773.66453,-26.75014 772.31982,-25.405485 C 771.74265,-24.831197 771.45408,-24.111959 771.4541,-23.24777 C 771.45408,-22.480125 771.74265,-21.807762 772.31982,-21.23068 L 802.12793,8.5774254 L 772.31982,38.385531 C 771.74265,38.962685 771.45408,39.681922 771.4541,40.543246 C 771.45408,41.313757 771.74265,41.986852 772.31982,42.562533 C 772.89695,43.138218 773.56931,43.426059 774.33691,43.426058 C 775.10447,43.426059 775.77683,43.137485 776.354,42.560336 L 806.16211,12.611605 L 835.8252,42.560336 C 836.39933,43.137485 837.07023,43.426059 837.83789,43.426058 C 838.70206,43.426059 839.42276,43.137485 840,42.560336 L 840,42.560336 z "
       style="font-size:144px;font-family:Euclid"
       transform="matrix(1.157357,0,0,1.157357,-598.84404,957.79547)" />
    <path
       id="flowRoot2584"
       d="M 803.56934,-15.688321 C 803.75971,-16.742947 803.37592,-17.270291 802.41797,-17.270353 L 788.59277,-17.270353 L 794.49463,-40.886564 C 794.87837,-42.421633 794.68648,-43.573731 793.91895,-44.342862 C 793.15132,-45.111816 792.19185,-45.496337 791.04053,-45.496427 C 789.88912,-45.496337 788.73702,-45.111816 787.58423,-44.342862 C 786.43136,-43.573731 785.66305,-42.421633 785.2793,-40.886564 L 779.37744,-17.270353 L 765.40723,-17.270353 C 764.44627,-17.270291 763.77391,-16.742947 763.39014,-15.688321 L 763.10449,-14.536954 C 762.91112,-13.479279 763.29491,-12.950471 764.25586,-12.950528 L 778.3667,-12.950528 L 767.85498,29.096347 C 767.28074,31.399094 767.11302,33.583174 767.35181,35.648593 C 767.59056,37.714029 768.21458,39.53849 769.22388,41.121981 C 770.23313,42.705479 771.57713,43.952793 773.25586,44.863925 C 774.93455,45.775056 776.92673,46.230622 779.23242,46.230624 C 781.91891,46.230622 784.39083,45.558992 786.64819,44.215731 C 788.90548,42.872471 790.96944,41.14469 792.84009,39.032382 C 794.71065,36.920085 796.36592,34.544111 797.80591,31.904452 C 799.2458,29.264819 800.44624,26.600271 801.40723,23.9108 C 801.50385,23.623711 801.45625,23.33587 801.2644,23.047274 C 801.07246,22.758722 800.78462,22.614435 800.40088,22.614413 L 798.67383,22.614413 C 798.38374,22.614435 798.071,22.711115 797.7356,22.904452 C 797.4001,23.097833 797.18403,23.386407 797.0874,23.770175 C 796.12642,26.360037 795.07027,28.807056 793.91895,31.111239 C 792.76754,33.41545 791.47188,35.455975 790.03198,37.232821 C 788.592,39.009682 787.03195,40.426185 785.35181,41.482333 C 783.6716,42.538487 781.87204,43.066563 779.95313,43.066561 C 777.55368,43.066563 776.20969,41.72257 775.92114,39.034579 C 775.63254,36.346599 776.0156,33.033858 777.07031,29.096347 L 787.58203,-12.950528 L 801.26221,-12.950528 C 802.22309,-12.950471 802.89545,-13.479279 803.2793,-14.536954 L 803.56934,-15.688321 z "
       style="font-size:144px;font-family:Euclid"
       transform="matrix(0.9554219,0,0,0.9554219,649.2561,1033.4974)" />
  </g>
</svg>
